<?xml version="1.0" encoding="UTF-8"?>
<svg version="1.1" xmlns="http://www.w3.org/2000/svg" width="48" height="48">
<path d="M0 0 C15.84 0 31.68 0 48 0 C48 15.84 48 31.68 48 48 C32.16 48 16.32 48 0 48 C0 32.16 0 16.32 0 0 Z " fill="#CB3B79" transform="translate(0,0)"/>
<path d="M0 0 C2.64 0 5.28 0 8 0 C10.97 8.91 13.94 17.82 17 27 C19.92006084 18.48949572 19.92006084 18.48949572 22.83374023 9.97680664 C23.19669189 8.92356201 23.55964355 7.87031738 23.93359375 6.78515625 C24.30540771 5.70113525 24.67722168 4.61711426 25.06030273 3.50024414 C26 1 26 1 27 0 C28.98 0 30.96 0 33 0 C33 11.55 33 23.1 33 35 C31.68 35 30.36 35 29 35 C28.505 23.12 28.505 23.12 28 11 C27.43410156 12.64871094 26.86820313 14.29742187 26.28515625 15.99609375 C25.54442327 18.14328176 24.80352957 20.29041433 24.0625 22.4375 C23.68931641 23.52611328 23.31613281 24.61472656 22.93164062 25.73632812 C22.57392578 26.77080078 22.21621094 27.80527344 21.84765625 28.87109375 C21.51773682 29.82943115 21.18781738 30.78776855 20.84790039 31.77514648 C20 34 20 34 19 35 C17.35 35 15.7 35 14 35 C11.36 27.08 8.72 19.16 6 11 C5.67 18.92 5.34 26.84 5 35 C3.35 35 1.7 35 0 35 C0 23.45 0 11.9 0 0 Z " fill="#FCF3F7" transform="translate(7,6)"/>
</svg>
